<svg width="1052" height="544" viewBox="0 0 1052 544" fill="none" xmlns="http://www.w3.org/2000/svg">
<path d="M69.52 178.54C58.2267 178.54 48.1067 176.707 39.16 173.04C30.2133 169.373 23.0267 163.947 17.6 156.76C12.32 149.573 9.53333 140.92 9.24 130.8H49.28C49.8667 136.52 51.8467 140.92 55.22 144C58.5933 146.933 62.9933 148.4 68.42 148.4C73.9933 148.4 78.3933 147.153 81.62 144.66C84.8467 142.02 86.46 138.427 86.46 133.88C86.46 130.067 85.14 126.913 82.5 124.42C80.0067 121.927 76.8533 119.873 73.04 118.26C69.3733 116.647 64.0933 114.813 57.2 112.76C47.2267 109.68 39.0867 106.6 32.78 103.52C26.4733 100.44 21.0467 95.8933 16.5 89.88C11.9533 83.8667 9.68 76.02 9.68 66.34C9.68 51.9667 14.8867 40.7467 25.3 32.68C35.7133 24.4667 49.28 20.36 66 20.36C83.0133 20.36 96.7267 24.4667 107.14 32.68C117.553 40.7467 123.127 52.04 123.86 66.56H83.16C82.8667 61.5733 81.0333 57.6867 77.66 54.9C74.2867 51.9667 69.96 50.5 64.68 50.5C60.1333 50.5 56.4667 51.7467 53.68 54.24C50.8933 56.5867 49.5 60.0333 49.5 64.58C49.5 69.5667 51.8467 73.4533 56.54 76.24C61.2333 79.0267 68.5667 82.0333 78.54 85.26C88.5133 88.6333 96.58 91.86 102.74 94.94C109.047 98.02 114.473 102.493 119.02 108.36C123.567 114.227 125.84 121.78 125.84 131.02C125.84 139.82 123.567 147.813 119.02 155C114.62 162.187 108.167 167.907 99.66 172.16C91.1533 176.413 81.1067 178.54 69.52 178.54ZM141.512 115.4C141.512 102.787 143.858 91.7133 148.552 82.18C153.392 72.6467 159.918 65.3133 168.132 60.18C176.345 55.0467 185.512 52.48 195.632 52.48C204.285 52.48 211.838 54.24 218.292 57.76C224.892 61.28 229.952 65.9 233.472 71.62V54.24H271.092V177H233.472V159.62C229.805 165.34 224.672 169.96 218.072 173.48C211.618 177 204.065 178.76 195.412 178.76C185.438 178.76 176.345 176.193 168.132 171.06C159.918 165.78 153.392 158.373 148.552 148.84C143.858 139.16 141.512 128.013 141.512 115.4ZM233.472 115.62C233.472 106.233 230.832 98.8267 225.552 93.4C220.418 87.9733 214.112 85.26 206.632 85.26C199.152 85.26 192.772 87.9733 187.492 93.4C182.358 98.68 179.792 106.013 179.792 115.4C179.792 124.787 182.358 132.267 187.492 137.84C192.772 143.267 199.152 145.98 206.632 145.98C214.112 145.98 220.418 143.267 225.552 137.84C230.832 132.413 233.472 125.007 233.472 115.62ZM373.108 52.92C387.481 52.92 398.921 57.6133 407.428 67C416.081 76.24 420.408 89 420.408 105.28V177H383.008V110.34C383.008 102.127 380.881 95.7467 376.628 91.2C372.375 86.6533 366.655 84.38 359.468 84.38C352.281 84.38 346.561 86.6533 342.308 91.2C338.055 95.7467 335.928 102.127 335.928 110.34V177H298.308V54.24H335.928V70.52C339.741 65.0933 344.875 60.84 351.328 57.76C357.781 54.5333 365.041 52.92 373.108 52.92ZM514.97 145.1V177H495.83C482.19 177 471.557 173.7 463.93 167.1C456.303 160.353 452.49 149.427 452.49 134.32V85.48H437.53V54.24H452.49V24.32H490.11V54.24H514.75V85.48H490.11V134.76C490.11 138.427 490.99 141.067 492.75 142.68C494.51 144.293 497.443 145.1 501.55 145.1H514.97ZM554.845 41.48C548.245 41.48 542.818 39.5733 538.565 35.76C534.458 31.8 532.405 26.96 532.405 21.24C532.405 15.3733 534.458 10.5333 538.565 6.71999C542.818 2.75999 548.245 0.779987 554.845 0.779987C561.298 0.779987 566.578 2.75999 570.685 6.71999C574.938 10.5333 577.065 15.3733 577.065 21.24C577.065 26.96 574.938 31.8 570.685 35.76C566.578 39.5733 561.298 41.48 554.845 41.48ZM573.545 54.24V177H535.925V54.24H573.545ZM593.328 115.4C593.328 102.787 595.675 91.7133 600.368 82.18C605.208 72.6467 611.735 65.3133 619.948 60.18C628.161 55.0467 637.328 52.48 647.448 52.48C656.101 52.48 663.655 54.24 670.108 57.76C676.708 61.28 681.768 65.9 685.288 71.62V54.24H722.908V177H685.288V159.62C681.621 165.34 676.488 169.96 669.888 173.48C663.435 177 655.881 178.76 647.228 178.76C637.255 178.76 628.161 176.193 619.948 171.06C611.735 165.78 605.208 158.373 600.368 148.84C595.675 139.16 593.328 128.013 593.328 115.4ZM685.288 115.62C685.288 106.233 682.648 98.8267 677.368 93.4C672.235 87.9733 665.928 85.26 658.448 85.26C650.968 85.26 644.588 87.9733 639.308 93.4C634.175 98.68 631.608 106.013 631.608 115.4C631.608 124.787 634.175 132.267 639.308 137.84C644.588 143.267 650.968 145.98 658.448 145.98C665.928 145.98 672.235 143.267 677.368 137.84C682.648 132.413 685.288 125.007 685.288 115.62ZM796.764 52.48C805.418 52.48 812.971 54.24 819.424 57.76C826.024 61.28 831.084 65.9 834.604 71.62V54.24H872.224V176.78C872.224 188.073 869.951 198.267 865.404 207.36C861.004 216.6 854.184 223.933 844.944 229.36C835.851 234.787 824.484 237.5 810.844 237.5C792.658 237.5 777.918 233.173 766.624 224.52C755.331 216.013 748.878 204.427 747.264 189.76H784.444C785.618 194.453 788.404 198.12 792.804 200.76C797.204 203.547 802.631 204.94 809.084 204.94C816.858 204.94 823.018 202.667 827.564 198.12C832.258 193.72 834.604 186.607 834.604 176.78V159.4C830.938 165.12 825.878 169.813 819.424 173.48C812.971 177 805.418 178.76 796.764 178.76C786.644 178.76 777.478 176.193 769.264 171.06C761.051 165.78 754.524 158.373 749.684 148.84C744.991 139.16 742.644 128.013 742.644 115.4C742.644 102.787 744.991 91.7133 749.684 82.18C754.524 72.6467 761.051 65.3133 769.264 60.18C777.478 55.0467 786.644 52.48 796.764 52.48ZM834.604 115.62C834.604 106.233 831.964 98.8267 826.684 93.4C821.551 87.9733 815.244 85.26 807.764 85.26C800.284 85.26 793.904 87.9733 788.624 93.4C783.491 98.68 780.924 106.013 780.924 115.4C780.924 124.787 783.491 132.267 788.624 137.84C793.904 143.267 800.284 145.98 807.764 145.98C815.244 145.98 821.551 143.267 826.684 137.84C831.964 132.413 834.604 125.007 834.604 115.62ZM955.321 178.76C943.294 178.76 932.441 176.193 922.761 171.06C913.227 165.927 905.674 158.593 900.101 149.06C894.674 139.527 891.961 128.38 891.961 115.62C891.961 103.007 894.747 91.9333 900.321 82.4C905.894 72.72 913.521 65.3133 923.201 60.18C932.881 55.0467 943.734 52.48 955.761 52.48C967.787 52.48 978.641 55.0467 988.321 60.18C998.001 65.3133 1005.63 72.72 1011.2 82.4C1016.77 91.9333 1019.56 103.007 1019.56 115.62C1019.56 128.233 1016.7 139.38 1010.98 149.06C1005.41 158.593 997.707 165.927 987.881 171.06C978.201 176.193 967.347 178.76 955.321 178.76ZM955.321 146.2C962.507 146.2 968.594 143.56 973.581 138.28C978.714 133 981.281 125.447 981.281 115.62C981.281 105.793 978.787 98.24 973.801 92.96C968.961 87.68 962.947 85.04 955.761 85.04C948.427 85.04 942.341 87.68 937.501 92.96C932.661 98.0933 930.241 105.647 930.241 115.62C930.241 125.447 932.587 133 937.281 138.28C942.121 143.56 948.134 146.2 955.321 146.2ZM51.26 347.96H100.54V377H13.64V222.56H51.26V347.96ZM174.364 378.76C162.337 378.76 151.484 376.193 141.804 371.06C132.27 365.927 124.717 358.593 119.144 349.06C113.717 339.527 111.004 328.38 111.004 315.62C111.004 303.007 113.79 291.933 119.364 282.4C124.937 272.72 132.564 265.313 142.244 260.18C151.924 255.047 162.777 252.48 174.804 252.48C186.83 252.48 197.684 255.047 207.364 260.18C217.044 265.313 224.67 272.72 230.244 282.4C235.817 291.933 238.604 303.007 238.604 315.62C238.604 328.233 235.744 339.38 230.024 349.06C224.45 358.593 216.75 365.927 206.924 371.06C197.244 376.193 186.39 378.76 174.364 378.76ZM174.364 346.2C181.55 346.2 187.637 343.56 192.624 338.28C197.757 333 200.324 325.447 200.324 315.62C200.324 305.793 197.83 298.24 192.844 292.96C188.004 287.68 181.99 285.04 174.804 285.04C167.47 285.04 161.384 287.68 156.544 292.96C151.704 298.093 149.284 305.647 149.284 315.62C149.284 325.447 151.63 333 156.324 338.28C161.164 343.56 167.177 346.2 174.364 346.2ZM296.182 271.62C299.702 265.9 304.762 261.28 311.362 257.76C317.962 254.24 325.515 252.48 334.022 252.48C344.142 252.48 353.309 255.047 361.522 260.18C369.735 265.313 376.189 272.647 380.882 282.18C385.722 291.713 388.142 302.787 388.142 315.4C388.142 328.013 385.722 339.16 380.882 348.84C376.189 358.373 369.735 365.78 361.522 371.06C353.309 376.193 344.142 378.76 334.022 378.76C325.369 378.76 317.815 377.073 311.362 373.7C304.909 370.18 299.849 365.56 296.182 359.84V377H258.562V214.2H296.182V271.62ZM349.862 315.4C349.862 306.013 347.222 298.68 341.942 293.4C336.809 287.973 330.429 285.26 322.802 285.26C315.322 285.26 308.942 287.973 303.662 293.4C298.529 298.827 295.962 306.233 295.962 315.62C295.962 325.007 298.529 332.413 303.662 337.84C308.942 343.267 315.322 345.98 322.802 345.98C330.282 345.98 336.662 343.267 341.942 337.84C347.222 332.267 349.862 324.787 349.862 315.4ZM463.758 378.76C451.732 378.76 440.878 376.193 431.198 371.06C421.665 365.927 414.112 358.593 408.538 349.06C403.112 339.527 400.398 328.38 400.398 315.62C400.398 303.007 403.185 291.933 408.758 282.4C414.332 272.72 421.958 265.313 431.638 260.18C441.318 255.047 452.172 252.48 464.198 252.48C476.225 252.48 487.078 255.047 496.758 260.18C506.438 265.313 514.065 272.72 519.638 282.4C525.212 291.933 527.998 303.007 527.998 315.62C527.998 328.233 525.138 339.38 519.418 349.06C513.845 358.593 506.145 365.927 496.318 371.06C486.638 376.193 475.785 378.76 463.758 378.76ZM463.758 346.2C470.945 346.2 477.032 343.56 482.018 338.28C487.152 333 489.718 325.447 489.718 315.62C489.718 305.793 487.225 298.24 482.238 292.96C477.398 287.68 471.385 285.04 464.198 285.04C456.865 285.04 450.778 287.68 445.938 292.96C441.098 298.093 438.678 305.647 438.678 315.62C438.678 325.447 441.025 333 445.718 338.28C450.558 343.56 456.572 346.2 463.758 346.2Z" fill="white"/>
<path d="M31.26 505.72C27.94 505.72 24.88 505.2 22.08 504.16C19.32 503.08 16.9 501.56 14.82 499.6C12.78 497.64 11.18 495.34 10.02 492.7C8.9 490.06 8.34 487.16 8.34 484C8.34 480.84 8.9 477.94 10.02 475.3C11.18 472.66 12.8 470.36 14.88 468.4C16.96 466.44 19.4 464.94 22.2 463.9C25 462.82 28.08 462.28 31.44 462.28C35.16 462.28 38.5 462.9 41.46 464.14C44.46 465.38 46.98 467.18 49.02 469.54L42.78 475.3C41.26 473.7 39.6 472.52 37.8 471.76C36 470.96 34.04 470.56 31.92 470.56C29.88 470.56 28.02 470.88 26.34 471.52C24.66 472.16 23.2 473.08 21.96 474.28C20.76 475.48 19.82 476.9 19.14 478.54C18.5 480.18 18.18 482 18.18 484C18.18 485.96 18.5 487.76 19.14 489.4C19.82 491.04 20.76 492.48 21.96 493.72C23.2 494.92 24.64 495.84 26.28 496.48C27.96 497.12 29.8 497.44 31.8 497.44C33.72 497.44 35.58 497.14 37.38 496.54C39.22 495.9 41 494.84 42.72 493.36L48.24 500.38C45.96 502.1 43.3 503.42 40.26 504.34C37.26 505.26 34.26 505.72 31.26 505.72ZM39.36 499.12V483.34H48.24V500.38L39.36 499.12ZM71.9691 505.48C68.5291 505.48 65.4691 504.76 62.7891 503.32C60.1491 501.88 58.0491 499.92 56.4891 497.44C54.9691 494.92 54.2091 492.06 54.2091 488.86C54.2091 485.62 54.9691 482.76 56.4891 480.28C58.0491 477.76 60.1491 475.8 62.7891 474.4C65.4691 472.96 68.5291 472.24 71.9691 472.24C75.3691 472.24 78.4091 472.96 81.0891 474.4C83.7691 475.8 85.8691 477.74 87.3891 480.22C88.9091 482.7 89.6691 485.58 89.6691 488.86C89.6691 492.06 88.9091 494.92 87.3891 497.44C85.8691 499.92 83.7691 501.88 81.0891 503.32C78.4091 504.76 75.3691 505.48 71.9691 505.48ZM71.9691 497.8C73.5291 497.8 74.9291 497.44 76.1691 496.72C77.4091 496 78.3891 494.98 79.1091 493.66C79.8291 492.3 80.1891 490.7 80.1891 488.86C80.1891 486.98 79.8291 485.38 79.1091 484.06C78.3891 482.74 77.4091 481.72 76.1691 481C74.9291 480.28 73.5291 479.92 71.9691 479.92C70.4091 479.92 69.0091 480.28 67.7691 481C66.5291 481.72 65.5291 482.74 64.7691 484.06C64.0491 485.38 63.6891 486.98 63.6891 488.86C63.6891 490.7 64.0491 492.3 64.7691 493.66C65.5291 494.98 66.5291 496 67.7691 496.72C69.0091 497.44 70.4091 497.8 71.9691 497.8ZM113.578 505V463H134.098C139.378 463 143.338 464 145.978 466C148.658 468 149.998 470.64 149.998 473.92C149.998 476.12 149.458 478.04 148.378 479.68C147.298 481.28 145.818 482.52 143.938 483.4C142.058 484.28 139.898 484.72 137.458 484.72L138.598 482.26C141.238 482.26 143.578 482.7 145.618 483.58C147.658 484.42 149.238 485.68 150.358 487.36C151.518 489.04 152.098 491.1 152.098 493.54C152.098 497.14 150.678 499.96 147.838 502C144.998 504 140.818 505 135.298 505H113.578ZM123.238 497.68H134.578C137.098 497.68 138.998 497.28 140.278 496.48C141.598 495.64 142.258 494.32 142.258 492.52C142.258 490.76 141.598 489.46 140.278 488.62C138.998 487.74 137.098 487.3 134.578 487.3H122.518V480.22H132.898C135.258 480.22 137.058 479.82 138.298 479.02C139.578 478.18 140.218 476.92 140.218 475.24C140.218 473.6 139.578 472.38 138.298 471.58C137.058 470.74 135.258 470.32 132.898 470.32H123.238V497.68ZM174.817 505.48C171.137 505.48 167.897 504.76 165.097 503.32C162.337 501.88 160.197 499.92 158.677 497.44C157.157 494.92 156.397 492.06 156.397 488.86C156.397 485.62 157.137 482.76 158.617 480.28C160.137 477.76 162.197 475.8 164.797 474.4C167.397 472.96 170.337 472.24 173.617 472.24C176.777 472.24 179.617 472.92 182.137 474.28C184.697 475.6 186.717 477.52 188.197 480.04C189.677 482.52 190.417 485.5 190.417 488.98C190.417 489.34 190.397 489.76 190.357 490.24C190.317 490.68 190.277 491.1 190.237 491.5H164.017V486.04H185.317L181.717 487.66C181.717 485.98 181.377 484.52 180.697 483.28C180.017 482.04 179.077 481.08 177.877 480.4C176.677 479.68 175.277 479.32 173.677 479.32C172.077 479.32 170.657 479.68 169.417 480.4C168.217 481.08 167.277 482.06 166.597 483.34C165.917 484.58 165.577 486.06 165.577 487.78V489.22C165.577 490.98 165.957 492.54 166.717 493.9C167.517 495.22 168.617 496.24 170.017 496.96C171.457 497.64 173.137 497.98 175.057 497.98C176.777 497.98 178.277 497.72 179.557 497.2C180.877 496.68 182.077 495.9 183.157 494.86L188.137 500.26C186.657 501.94 184.797 503.24 182.557 504.16C180.317 505.04 177.737 505.48 174.817 505.48ZM200.142 517.12C198.462 517.12 196.802 516.86 195.162 516.34C193.522 515.82 192.182 515.1 191.142 514.18L194.562 507.52C195.282 508.16 196.102 508.66 197.022 509.02C197.982 509.38 198.922 509.56 199.842 509.56C201.162 509.56 202.202 509.24 202.962 508.6C203.762 508 204.482 506.98 205.122 505.54L206.802 501.58L207.522 500.56L219.102 472.72H228.102L213.522 506.98C212.482 509.58 211.282 511.62 209.922 513.1C208.602 514.58 207.122 515.62 205.482 516.22C203.882 516.82 202.102 517.12 200.142 517.12ZM205.662 506.26L191.262 472.72H200.922L212.082 499.72L205.662 506.26ZM246.403 505.48C242.963 505.48 239.903 504.76 237.223 503.32C234.583 501.88 232.483 499.92 230.923 497.44C229.403 494.92 228.643 492.06 228.643 488.86C228.643 485.62 229.403 482.76 230.923 480.28C232.483 477.76 234.583 475.8 237.223 474.4C239.903 472.96 242.963 472.24 246.403 472.24C249.803 472.24 252.843 472.96 255.523 474.4C258.203 475.8 260.303 477.74 261.823 480.22C263.343 482.7 264.103 485.58 264.103 488.86C264.103 492.06 263.343 494.92 261.823 497.44C260.303 499.92 258.203 501.88 255.523 503.32C252.843 504.76 249.803 505.48 246.403 505.48ZM246.403 497.8C247.963 497.8 249.363 497.44 250.603 496.72C251.843 496 252.823 494.98 253.543 493.66C254.263 492.3 254.623 490.7 254.623 488.86C254.623 486.98 254.263 485.38 253.543 484.06C252.823 482.74 251.843 481.72 250.603 481C249.363 480.28 247.963 479.92 246.403 479.92C244.843 479.92 243.443 480.28 242.203 481C240.963 481.72 239.963 482.74 239.203 484.06C238.483 485.38 238.123 486.98 238.123 488.86C238.123 490.7 238.483 492.3 239.203 493.66C239.963 494.98 240.963 496 242.203 496.72C243.443 497.44 244.843 497.8 246.403 497.8ZM289.979 472.24C292.539 472.24 294.819 472.76 296.819 473.8C298.859 474.8 300.459 476.36 301.619 478.48C302.779 480.56 303.359 483.24 303.359 486.52V505H293.999V487.96C293.999 485.36 293.419 483.44 292.259 482.2C291.139 480.96 289.539 480.34 287.459 480.34C285.979 480.34 284.639 480.66 283.439 481.3C282.279 481.9 281.359 482.84 280.679 484.12C280.039 485.4 279.719 487.04 279.719 489.04V505H270.359V472.72H279.299V481.66L277.619 478.96C278.779 476.8 280.439 475.14 282.599 473.98C284.759 472.82 287.219 472.24 289.979 472.24ZM325.938 505.48C322.898 505.48 320.158 504.8 317.718 503.44C315.278 502.04 313.338 500.1 311.898 497.62C310.498 495.14 309.798 492.22 309.798 488.86C309.798 485.46 310.498 482.52 311.898 480.04C313.338 477.56 315.278 475.64 317.718 474.28C320.158 472.92 322.898 472.24 325.938 472.24C328.658 472.24 331.038 472.84 333.078 474.04C335.118 475.24 336.698 477.06 337.818 479.5C338.938 481.94 339.498 485.06 339.498 488.86C339.498 492.62 338.958 495.74 337.878 498.22C336.798 500.66 335.238 502.48 333.198 503.68C331.198 504.88 328.778 505.48 325.938 505.48ZM327.558 497.8C329.078 497.8 330.458 497.44 331.698 496.72C332.938 496 333.918 494.98 334.638 493.66C335.398 492.3 335.778 490.7 335.778 488.86C335.778 486.98 335.398 485.38 334.638 484.06C333.918 482.74 332.938 481.72 331.698 481C330.458 480.28 329.078 479.92 327.558 479.92C325.998 479.92 324.598 480.28 323.358 481C322.118 481.72 321.118 482.74 320.358 484.06C319.638 485.38 319.278 486.98 319.278 488.86C319.278 490.7 319.638 492.3 320.358 493.66C321.118 494.98 322.118 496 323.358 496.72C324.598 497.44 325.998 497.8 327.558 497.8ZM336.018 505V498.4L336.198 488.8L335.598 479.26V460.48H344.958V505H336.018Z" fill="white"/>
</svg>
